<svg id="Layer_1" data-name="Layer 1" xmlns="http://www.w3.org/2000/svg" viewBox="0 0 500 500"><defs><style>.cls-1{fill:none;stroke:#231f20;stroke-linecap:round;stroke-linejoin:round;stroke-width:4px;}</style></defs><title>icon-sched</title><line class="cls-1" x1="205.81" y1="175.64" x2="205.81" y2="202.3"/><line class="cls-1" x1="278.09" y1="176.19" x2="278.09" y2="202.86"/><circle class="cls-1" cx="287.65" cy="279.67" r="45.69"/><polyline class="cls-1" points="287.65 252.96 287.65 279.67 307.29 279.67"/><path class="cls-1" d="M242,279.67a45.68,45.68,0,0,1,73.58-36.19V197.55a8,8,0,0,0-8-8H176.39a8,8,0,0,0-8,8v89.87a8,8,0,0,0,8,8h68.36A45.6,45.6,0,0,1,242,279.67Z"/><circle class="cls-1" cx="250" cy="250" r="213.54"/></svg>