<svg id="Layer_1" data-name="Layer 1" xmlns="http://www.w3.org/2000/svg" viewBox="0 0 500 500"><defs><style>.cls-1{fill:none;stroke:#231f20;stroke-linecap:round;stroke-linejoin:round;stroke-width:4px;}</style></defs><title>icon-item</title><rect class="cls-1" x="176.69" y="222.64" width="147.75" height="86.59"/><line class="cls-1" x1="176.69" y1="265.93" x2="324.44" y2="265.93"/><line class="cls-1" x1="250.56" y1="222.64" x2="250.56" y2="309.23"/><path class="cls-1" d="M299.22,192.53a22.37,22.37,0,0,1-22.37,22.37c-6.51,0-22.37-.15-22.37-.15V192.53a22.37,22.37,0,1,1,44.74,0Z"/><path class="cls-1" d="M215,199.16a15.74,15.74,0,0,0,15.74,15.74c4.58,0,15.74-.11,15.74-.11V199.16a15.74,15.74,0,0,0-31.48,0Z"/><circle class="cls-1" cx="250" cy="250" r="213.54"/></svg>