<svg id="Layer_1" data-name="Layer 1" xmlns="http://www.w3.org/2000/svg" viewBox="0 0 500 500"><defs><style>.cls-1{fill:none;stroke:#231f20;stroke-linecap:round;stroke-linejoin:round;stroke-width:4px;}.cls-2{fill:#231f20;}</style></defs><title>icon-hcahps</title><path class="cls-1" d="M319.94,220.53c0,38.68-70,129.11-70,129.11s-70-90.43-70-129.11a70,70,0,0,1,140.06,0Z"/><path class="cls-2" d="M259.47,235.06V220.93H238.86v14.13a3.47,3.47,0,1,1-6.95,0V201.75a3.47,3.47,0,1,1,6.95,0v13.07h20.61V201.75a3.47,3.47,0,1,1,6.95,0v33.32a3.47,3.47,0,1,1-6.95,0Z"/><circle class="cls-1" cx="249.91" cy="220.53" r="55.46"/><circle class="cls-1" cx="250" cy="250" r="213.54"/></svg>